# xmcd
#
# Track frame offsets:
#	150
#	12782
#	31945
#	55910
#	70545
#	91500
#	109602
#	129065
#	144325
#	168522
#	178215
#	191867
#	217482
#	248237
#	258610
#	285202
#	298562
#	317445
#	322490
#	337030
#
# Disc length: 4719 seconds
# Revision: 4
# Processed by: cddbd v1.5.2PL0 Copyright (c) Steve Scherf et al.
# Submitted via: dBpowerAMP V12.0
#
DISCID=28126d14
DTITLE=Sonny Boy Williamson - Sonny Boy Williamson and the Yardbirds
DYEAR=1966
DGENRE=Rock
TTITLE0=Bye Bye Bird
TTITLE1=Mr. Downchild
TTITLE2=23 Hours Too Long
TTITLE3=Out on the Water Coast
TTITLE4=Baby Don't Worry
TTITLE5=Pontiac Blues
TTITLE6=Take It Easy Baby
TTITLE7=I Don't Care No More
TTITLE8=The River Rhine
TTITLE9=A Lost Care
TTITLE10=Western Arizona
TTITLE11=Take It Easy Baby
TTITLE12=Smokestack Lightning
TTITLE13=Let It Rock
TTITLE14=I Wish You Would
TTITLE15=You Can't Judge a Book by Its Cover
TTITLE16=Who Do You Love?
TTITLE17=Slow Walk (Yardbirds Beat)
TTITLE18=Highway 69
TTITLE19=My Little Cabin
EXTD=
EXTT0=
EXTT1=
EXTT2=
EXTT3=
EXTT4=
EXTT5=
EXTT6=
EXTT7=
EXTT8=
EXTT9=
EXTT10=
EXTT11=
EXTT12=
EXTT13=
EXTT14=
EXTT15=
EXTT16=
EXTT17=
EXTT18=
EXTT19=
PLAYORDER=
